<svg id="Capa_2" data-name="Capa 2" xmlns="http://www.w3.org/2000/svg" viewBox="0 0 1696.96 363.28"><defs><style>.cls-1{fill:#cd1126;}.cls-2{fill:#006847;}.cls-3{fill:#faac1a;}.cls-4{fill:#002060;}.cls-5{fill:#00afef;}.cls-6{fill:#2e75b5;}.cls-7{fill:#01afef;}.cls-8{fill:#f7a01b;}.cls-9{fill:#04b0ee;}.cls-10{fill:#06b0ed;}.cls-11{fill:#09ade6;}.cls-12{fill:#09b1ec;}.cls-13{fill:#ce182c;}.cls-14{fill:#d32f42;}.cls-15{fill:#0db3ee;}.cls-16{fill:#2d8267;}.cls-17{fill:#38bce6;}.cls-18{fill:#2fbae6;}.cls-19{fill:#da4e5e;}.cls-20{fill:#428f76;}.cls-21{fill:#247d61;}.cls-22{fill:#5c7098;}.cls-23{fill:#50c5ec;}.cls-24{fill:#01afee;}.cls-25{fill:#01afed;}.cls-26{fill:#1f8fb4;}</style></defs><title>LOGO</title><path class="cls-1" d="M7506,7387.56c-29.2,5.84-52.11-25.53-53.35-45.41-1.79-28.52,6.32-55.1,14.23-81.84,3.25-11,7.27-21.76,8.81-33.15l-2.09-1.68c-2.49,3-4.88,6.14-7.47,9.08-31.24,35.49-61.54,71.77-91.52,108.32a436.33,436.33,0,0,1-33.95,36.7,44.33,44.33,0,0,1-7.72,5.81c-11.82,7.21-22.55,4.51-29.2-7.49a71,71,0,0,1-8.52-28.25c-2.69-28.66,1.19-56.7,7.24-84.59,4.18-19.3,8.39-38.59,13-59.67-11.57,11.16-19.86,22.83-28.72,34-31.47,39.81-62.43,80-99,115.53a131.33,131.33,0,0,1-59.83,33.27c-4.33,1.12-9.08.7-13.64.85-3.69.13-7.32-.67-8.68-4.46-1.28-3.52,1.34-6,3.71-8.31,10.64-10.26,21.39-20.43,32-30.77,41.56-40.67,78.69-85.28,116.6-129.23,20.19-23.39,39.44-47.56,60-70.62,5.77-6.47,8.27-13,2.31-20.88-3.41-4.49-.4-7.4,3.38-9.73,7-4.34,15.15-5.51,23-6.84,13.33-2.25,26.82-2.11,39.5,3.37a21.76,21.76,0,0,1,13.33,17c1.77,10.2,1,20.41-.16,30.51-3.16,27.71-8.7,55-13.63,82.47-1.88,10.48-4.7,21-4.24,31.79.1,2.38-.51,5.31,2.1,6.5,3.26,1.5,4.85-1.68,6.37-3.57,12.95-16.11,25.49-32.56,38.65-48.51,26.64-32.31,52-65.67,81.26-95.81,17-17.52,38.44-23.45,61.87-24.62,2.94-.15,5.91.38,8.87.38,15.1,0,16.32,1.31,10.71,15.25-12.2,30.3-23.4,60.95-32.72,92.26-9.61,32.28-15.93,65-12.23,98.9a62.36,62.36,0,0,0,10.85,29c4.8,6.94,3.8,12.29-2.36,17.35-3.34-.4-5.7,1.52-7.71,3.66-10.7,11.43-24,18.17-39,22A4.76,4.76,0,0,0,7506,7387.56Z" transform="translate(-6351.07 -7063.67)"/><path class="cls-2" d="M6409.53,7298.18c4.87-2.8,9.37-5.47,13.94-8,18.94-10.56,37-7.3,54.32,3.86,3.73,2.41,6.33,4.12,10.58.76,27-21.37,53.82-14.22,67,17.64,8.66,20.93,3.88,46-12.12,61.87-12.34,12.24-26.15,17.67-45.08,8.05-3.89-2-7.3-1.82-11.47-1.42-21.7,2.08-43.36,3-65.15-.52-13.95-2.26-27.08-6.39-40.16-11.36-4.48-1.7-7.67-4.72-11.3-7.31-2.92-2.08-5.15-3.77-9.37-2.68-5.16,1.35-11.63-9-9.06-15.33,2.06-5.05,2.15-10,1.71-14.91-3.4-38.19,5.1-74.49,16.45-110.54,8-25.52,16.58-50.9,22.4-77.13,2.84-12.78,14.29-19.57,24.52-26.57,1.1-.75,2.42-1.14,3.57-1.81,13.72-8,18.71-5.78,25.06,8.57,3.76,8.48,4.13,16.57,2.59,25.21a9.5,9.5,0,0,1-1,2.95c-2.63,4.58-24.88,9.07-28.95,5.86-1.87-1.48-3.84-4.15-6.16-2.58-2,1.34-1.21,4.47-.74,6.79,5.94,28.87,6.21,58.11,4.61,87.3C6414.8,7263.89,6411.7,7280.81,6409.53,7298.18Z" transform="translate(-6351.07 -7063.67)"/><path class="cls-1" d="M7966.9,7326.12q-16.84,23.52-33.7,47.05c-3,3.49-6.38,6.69-8.35,10.95-12.13,19-26,35.89-49.53,41.31-8.75,2-17.56,1.8-26.39.68a29.74,29.74,0,0,0-3.65-1.64c-4.1-1.88-8.84-3.31-8.34-9.21.5-6.05,6-11.75,11.75-12.49.64-.08,1.27.22,1.91,0-1.18-.2-1.93-.73-1.6-2.09,3.5-.06,7.13-.74,10.47-.06,11.78,2.39,19.28-3.36,27.49-11,12.4-11.56,14.13-25.25,11.88-40.25a178.33,178.33,0,0,1-2.26-25.59c-.09-19.6-2.29-39-3.5-58.55-.8-12.93,5.63-22.57,17.87-27.44,7.09-2.81,13-.11,15.12,7.15,1.46,4.94,1.51,10.05,1.52,15.17q.09,36.61.29,73.24c0,1.07.21,2.13.39,3.81,3.55-1.54,5.22-4.5,7.09-7.2q27.07-39,54.13-78c3.69-5.28,7.75-10.3,13.65-13.47,5.47-2.92,10.53-2.22,14.87,1.85,4.57,4.26,3.47,9.14.49,13.86-13.3,21.1-28.7,40.72-43.26,60.93C7972.26,7318.66,7968.87,7321.85,7966.9,7326.12Z" transform="translate(-6351.07 -7063.67)"/><path class="cls-3" d="M8006.58,7218.33c-4.59,4.88-9.8,7.48-16.53,4.46-9.15-3.5-11.47-12.92-16.94-19-3.63,6.91-3.35,16.32-11.59,21.27-4.44,3.14-9.46,3.4-14.63,2.93-4.81,0-6.46-4-9-6.95s-3.88-6.89-7.43-9.22c-6.08,5.62-5.33,16.84-15.78,18.5l-6.11,1.25c-2.47,1.08-4.7.26-6.9-.82-8.52-6.46-13.47-15.89-20.15-24.75-4.15,4.48-6.17,9.73-9,14.42-9,14.7-21.47,15.49-32.34,2-3.37-4.18-6.53-8.53-9.71-12.86-2.15-2.94-3.68-2.51-5.09.58-2.23,4.88-3.9,10-6.66,14.65-6.91,11.62-18.49,11.6-25.37-.1-2.41-4.11-4.18-8.59-7-13.25-4.38,3.81-7,8.21-10.44,11.86-10.52,11.14-21.19,9.59-28.25-4a103.43,103.43,0,0,1-5.92-14.09c-1.14-3.28-2.91-3.58-5.14-.83-3.21,4-6.69,7.71-10.16,11.44-10.46,11.21-21.13,10.52-30.39-1.69a76.21,76.21,0,0,1-6.29-10.3c-3.95-7.43-5.08-7.46-10.15-.39-2.19,3.06-4.24,6.2-7.2,8.63-7.88,6.47-14,6.36-21.47-.45a38.11,38.11,0,0,1-7.37-9.5c-3.65-6.4-4.36-6.46-8.53-.57-4,5.67-8.34,10.62-16.08,10.57a15,15,0,0,1-3.63-.76c-12.85-7.3-16.54-20.3-20-33.08-1.62-6,3.46-9.08,13.38-9.27,6.12,5.39,6.2,14,11.22,20.7,3.86-2.65,5.57-7.09,8.78-10.16,8.49-8.13,16.93-7.63,23.88,1.71,3.17,4.26,4.42,11.9,9.12,12.51,5.16.66,6.33-7.64,10.55-10.87,2.12-1.63,3.9-3.7,6.31-5a16.14,16.14,0,0,1,9.39-1.58,12.89,12.89,0,0,1,2.29.53c8.6,3.66,12.06,11.62,16.07,19.12,4.9,9.16,5.52,9.12,12.28,1.14,5.29-6.26,10.07-13.21,18.25-16.32a10.85,10.85,0,0,1,9.23.46,26.57,26.57,0,0,1,10.52,11.78c2.31,4.75,3.72,9.92,6.42,14.62,3.95-1.59,5.52-4.85,7.66-7.44,11.88-14.36,22.89-13.55,32,2.45,1.06,1.85,1.82,3.85,3.19,6.23,2.44-6,4.93-11.52,8.47-16.49,4.9-6.88,8.6-8.19,17.23-6.18,8.93,4.69,14.21,12.93,19.92,20.66,3.26,4.4,5.39,4.56,7.76-.59a52,52,0,0,1,9.73-14.69c7.79-8.06,15.67-8.25,23.91-.49,4.74,4.48,7.77,10.25,11.43,15.52,3.05,4.4,5.34,4.94,7.52-.56a46.85,46.85,0,0,1,4.26-8.64c6.73-10.25,17.09-11.2,25.54-2.24,3.43,3.63,5.92,8.08,9.72,12.55,3-5.83,4.37-11.32,7.08-16.17,6.64-11.91,15.74-13.16,25.3-3.51,4.15,4.2,7.17,9.3,10.89,13.83a2.4,2.4,0,0,0,.84-1.36c7-20.81,16.77-23.88,34.58-10.72a51.31,51.31,0,0,1,11.91,11.89c1.15,3-.45,5.14-2.29,7.21a22.2,22.2,0,0,1-6.23,4.4l-1.58.34c-5.07-1.46-8.6-5.16-12.28-8.56-3.48-3.22-5.18-2.36-6.67,1.85S8011.44,7216.08,8006.58,7218.33Z" transform="translate(-6351.07 -7063.67)"/><path class="cls-2" d="M7105.6,7269.16c7.83-4.72,12.79-11.41,20.16-14.84,10.54-4.9,21.3-5.61,31.82-.87,8.27,3.74,11.32,10.55,8.76,16.53-3.7,8.65-13.38,14.17-21.22,12.07-3.1-.84-6.13-2.08-9.28-2.54-17.93-2.63-28.36,3.55-38.19,22.5-10,19.31-16.42,40-23.22,60.55-3,9.14-7.12,17.39-15.44,22.8-4.62,3-9.53,5-15.15,2.14-5.79-2.9-5.53-8.06-5.23-13.19.7-12,6.31-22.59,9.93-33.71,7.86-24.15,16.52-48,24.86-72a31.62,31.62,0,0,1,9.39-13.81c5.69-4.88,12.34-5.78,18.76-2.49S7106.6,7262,7105.6,7269.16Z" transform="translate(-6351.07 -7063.67)"/><path class="cls-4" d="M7690.87,7178.23l-2.23-.46c-3.58-1-7.1-.37-10.62.41-6.2,1.7-12.32-.11-18.27-1.07-15.79-2.53-31.87-2.55-47.58-5.69-2.28-2.1-4.95-2.19-7.94-2.06-4.43.19-8.93-.08-12.13-4-1.73-2.66-3-5.35-.36-8.21.51-1.21,2.7.28,2.74-1.69,7.65-6.84,17.52-8.66,26.88-11.18,30.22-8.13,61.25-10.81,92.36-12.7,6.14-.37,12.39.82,18.41-1.25,2.88,2.59,2.45,6.07,2.58,9.4-2.16,11.45-.61,22.86.34,34.29.21,2.62.95,5.34-.9,7.74C7719.49,7183.39,7705,7182.57,7690.87,7178.23Z" transform="translate(-6351.07 -7063.67)"/><path class="cls-5" d="M7790.59,7238.14l-15-.42c-23.51-2.56-47.07-4.8-70.53-7.76-25.56-3.23-51.1-6.72-76.11-13.13-2.28-2-5.12-2.17-7.93-2.57-2.25-.32-3.22-1.53-1.77-3.73,11.34-.9,13.89-11.56,20.57-18.7,3,5.1,5.68,10,8.8,14.62,7.56,11.09,16,11.63,25,1.6a110.26,110.26,0,0,0,8.25-10.91c2.53-3.66,4.42-4.14,6.72.28a140.28,140.28,0,0,0,9.27,16c7.57,10.8,15.8,11.6,25.57,2.71a109.45,109.45,0,0,0,8.11-8.95c2.65-3,5.23-6.1,8.16-9.52,4.73,5.8,5.74,12.83,8.61,19,7.11,15.17,16.33,16.58,27.34,3.84,3.49-4,6.75-8.27,10.8-13.25,2.76,5.39,5,10.06,7.52,14.6,2.74,5,5.56,10,12.43,9.95,7,0,9.44-5.44,11.95-10.41,3-6,5.54-12.15,8.7-19.17,5.05,6.57,9.47,12.59,14.16,18.38,11.44,14.1,21.29,13.25,30.54-2.56,2.93-5,5.67-10.12,8.88-15.86,8.18,9.14,13,20,21.82,27.61a2.46,2.46,0,0,1-.07,3.27c-8.07,1.49-16.13,3.15-24.37,3-2.69,0-5.3-.38-7.7,1.16l-12.09.72a36,36,0,0,1-14.13,2.44c-13.65-.11-27.31-.08-41,0A29.1,29.1,0,0,1,7790.59,7238.14Z" transform="translate(-6351.07 -7063.67)"/><path class="cls-6" d="M7798.77,7063.69l14.58,0c21.16,5.52,35,20.17,46.86,37.26-1.6,2.49-4.17,3.22-6.87,3.65-33.14,5.24-66.34,9.86-100,9.9-3.94,0-8.13.72-11.51-2.31,9.37-22.45,26.39-36.86,48.58-45.78C7793.12,7065.31,7796,7064.58,7798.77,7063.69Z" transform="translate(-6351.07 -7063.67)"/><path class="cls-5" d="M8041.63,7202.3c-6.09-4.84-11.33-10.72-18.16-14.68-12.21-7.06-19.39-4.53-24.31,8.64-1.2,3.22-2.31,6.47-3.68,10.32-4.19-5.61-7.72-11-11.91-15.81-9.38-10.82-18.07-9.66-24.15,3.18-2.71,5.74-4.74,11.79-7.33,18.34-3.85-5.25-7-10-10.54-14.28-9-10.92-17.74-10.19-24.64,2-2.72,4.82-5,9.9-7.94,15.88-5.09-7-9.4-13.43-14.14-19.47-10.46-13.31-20.12-12.62-28.85,1.94-3.27,5.45-6.26,11.07-9.65,17.1-9.23-9.23-14.39-21.14-25.14-28,2.52-5.68,8.49-2.48,12.34-4.77,15.22-.46,30.42-1.59,45.64-2.13,49.88-2.64,99.79-5,149.28-12.31,2.94-.44,5.87-.92,8.71.42a.69.69,0,0,1,.86-.13l-.09,7.92,0,8.05q-1,8.85-2,17.7C8044.52,7205.08,8043.08,7204.82,8041.63,7202.3Z" transform="translate(-6351.07 -7063.67)"/><path class="cls-7" d="M7732.68,7139.37c-.19-3-.39-6-.57-9,2.23-.8,2.37-3.21,3.68-4.7,2.26-3.63,6-3.2,9.39-3.09,37.7,1.14,74.84-3.88,111.87-10,3.45-.57,6.89-1.25,10.27.29a25,25,0,0,1,5.85,12.61c1.14,5.75-3.85,5-6.65,5.62a482,482,0,0,1-63.71,9c-19.5,1.5-39.07,2.6-58.67,1.85C7740.17,7141.77,7736,7142.48,7732.68,7139.37Z" transform="translate(-6351.07 -7063.67)"/><path class="cls-8" d="M7867.32,7112.82a618.08,618.08,0,0,1-131.53,12.83,23.83,23.83,0,0,1,6-13.48c39.86.42,79.21-4.54,118.38-11.24A38.57,38.57,0,0,1,7867.32,7112.82Z" transform="translate(-6351.07 -7063.67)"/><path class="cls-9" d="M7914.72,7230.32c8.36-5.34,9.88-15.36,15.42-23.21,5.79,7.31,10.1,15.06,16.75,20.88C7936.32,7230.83,7925.63,7232.13,7914.72,7230.32Z" transform="translate(-6351.07 -7063.67)"/><path class="cls-10" d="M7961.52,7225.06c5.38-7.17,6.94-16.08,11.07-24.37l17.46,22.1A185.5,185.5,0,0,1,7961.52,7225.06Z" transform="translate(-6351.07 -7063.67)"/><path class="cls-11" d="M7592.1,7165.39l19.5,4.45a1.39,1.39,0,0,1-2.11.3,5.8,5.8,0,0,0-1.6-.07c-13.19,3.2-13.22,3.22-8.26,15.46,3.8,9.4,7.45,18.92,16.71,24.67a15.69,15.69,0,0,1-17.94-8.71c-.63-1.42-.55-3.18-2.38-3.82-2-3.52-.89-7.37-1.18-11.07-1.56-3.21.24-6.83-1.24-10Z" transform="translate(-6351.07 -7063.67)"/><path class="cls-12" d="M8006.58,7218.33c1.29-3.23,2.76-6.41,3.83-9.71,3.61-11,3.58-11.08,12.68-3.17,3,2.63,5.89,5.48,8.82,8.23C8023.58,7215.84,8015.42,7218.94,8006.58,7218.33Z" transform="translate(-6351.07 -7063.67)"/><path class="cls-13" d="M7506,7387.56c1.85-6,8.07-3.66,12-5.69,10.42-5.4,20.52-10.71,28.25-19.8,2.15-2.52,4.8-5.8,8.45-1.49C7540.91,7373.94,7525.43,7384.28,7506,7387.56Z" transform="translate(-6351.07 -7063.67)"/><path class="cls-14" d="M7849,7400.71c1.49,2.44,4.66.35,6.88,2.77-6.12-.16-11.34.55-15,5.72-4.08,5.84-3.38,10.39,2.94,13.47,1.92.94,4.07,1.25,5.07,3.44-6.29-.69-13.53-2-13.69-9.28C7835.06,7408.63,7840.67,7402.94,7849,7400.71Z" transform="translate(-6351.07 -7063.67)"/><path class="cls-15" d="M7596,7197.67c5.5,2.55,6.56,10.13,13.55,11.4,2.21.4,4.42,1.16,6.77,1.13l2.9.33c.31,2.82,2.34,3.05,4.56,3,2.4,0,4.86-.08,5.14,3.26-8.45-1.09-16.32-4.2-24.26-7C7599,7207.84,7596.82,7203.2,7596,7197.67Z" transform="translate(-6351.07 -7063.67)"/><path class="cls-16" d="M6707.06,7256.67c-6.1,3.4-9.25-1.38-13-4.62C6698.93,7252.16,6703.06,7254.25,6707.06,7256.67Z" transform="translate(-6351.07 -7063.67)"/><path class="cls-17" d="M8041.63,7202.3c1.44.83,2.88,1.11,4.31,0,.41,2.42.12,4.65-1.72,6.48-2.1,1.1-4.2,1.77-6.26-.12C8038.9,7206.37,8041.87,7205.25,8041.63,7202.3Z" transform="translate(-6351.07 -7063.67)"/><path class="cls-18" d="M8038,7208.64l6.26.12c-2.8,3.34-6.54,4.47-10.73,4.58Z" transform="translate(-6351.07 -7063.67)"/><path class="cls-19" d="M7966.9,7326.12c0-5.76,4.31-8.25,8.34-11A27,27,0,0,1,7966.9,7326.12Z" transform="translate(-6351.07 -7063.67)"/><path class="cls-20" d="M6850.82,7355.12c-.09-5.77,4.38-8.17,8.23-11A24.18,24.18,0,0,1,6850.82,7355.12Z" transform="translate(-6351.07 -7063.67)"/><path class="cls-19" d="M7924.85,7384.12c0-5.76,4.3-8.26,8.35-10.95A27,27,0,0,1,7924.85,7384.12Z" transform="translate(-6351.07 -7063.67)"/><path class="cls-21" d="M6569.53,7353.89c-1.31,3.61,3.91,8.06-1.44,11.15C6568.13,7361.27,6567.11,7357.36,6569.53,7353.89Z" transform="translate(-6351.07 -7063.67)"/><path class="cls-15" d="M7593.6,7176.56c2.53,3.09,1,6.67,1.24,10C7593.22,7183.4,7593.45,7180,7593.6,7176.56Z" transform="translate(-6351.07 -7063.67)"/><path class="cls-22" d="M7594.48,7155.49l2.52,1.06c-1.4,3.15-3.62-.51-5.26.63C7591.9,7155.41,7593.06,7155.24,7594.48,7155.49Z" transform="translate(-6351.07 -7063.67)"/><path class="cls-23" d="M7902.37,7233c0-1.09.05-2.18.07-3.27l6.17,1.83C7906.86,7233.49,7904.58,7233.11,7902.37,7233Z" transform="translate(-6351.07 -7063.67)"/><path class="cls-6" d="M7732.68,7139.37c45.56,1.15,90.77-2,135.49-11.08,2-.42,4.48.09,5-2.86,1.78,2.31,3.48,4.72,6.32,5.91,6.39,15.09,9.32,31,11.18,47.16a5.21,5.21,0,0,1-1.36,4.41l-46.94,1.84c-20.33,1.24-40.63,4.16-61.05,1-4.79-.73-9.69-.34-14.54-.3-7.26.06-14.53.27-21.33-2.94-2.72-.6-5.43-1.09-8.17-.16-1.14-.56-3,.45-3.5-1.51C7731.84,7167.09,7729.78,7153.29,7732.68,7139.37Z" transform="translate(-6351.07 -7063.67)"/><path class="cls-4" d="M7889.31,7182.91c-2.05-16-5-31.86-10.16-47.19-.55-1.61-1-3,.34-4.38,44.84,1.41,89.29,6,133.06,16.22a119.26,119.26,0,0,1,27.14,9.66c2.42,3.89,7.44,6.09,7.47,11.51-16.35,4.8-33.32,5.65-50.1,7.2C7961.22,7179.24,7925.31,7181.89,7889.31,7182.91Z" transform="translate(-6351.07 -7063.67)"/><path class="cls-2" d="M6876.75,7281.5c-1-12.88-9-24.9-21.31-28.32-17.82-4.94-35-3.52-51.23,6.31-5.5,3.34-10.72,7.49-17.72,9.13,6.37-19,12.74-37.05,18.45-55.34,2.68-8.59-3.23-14.9-12.26-14a20.64,20.64,0,0,0-17,12,170.1,170.1,0,0,0-7.93,20.07q-23.9,69.89-47.65,139.83c-2.05,6-3.11,11.71,3.07,15.76s11.89,1.33,17.11-2.47c5.89-4.28,9.23-10.76,13.85-17.56,10.06,18.46,25.56,23.92,44.6,21.28,6.93-1,13.1-4.09,19.51-6.81a74,74,0,0,0,32.58-26.31c1.92-4.28,5.45-7.37,8.23-11C6870.05,7324.67,6878.6,7304.67,6876.75,7281.5Zm-36.1,27.7c-2.76,16.14-11.6,38.76-37.17,51.14-10.16,4.92-19.84,4.26-28.86-2.2s-9.55-16.21-7.6-25.49c4.09-19.52,12.58-36.9,29-49.46a39,39,0,0,1,16.66-7.54C6829,7272.55,6843.2,7279.1,6840.65,7309.2Z" transform="translate(-6351.07 -7063.67)"/><path class="cls-2" d="M6707.06,7256.67c-5,.27-8.67-3-13-4.62-14.22-4.35-28.7-3.5-42.93-.9-22.18,4.06-41.52,13.14-52.6,34.31-3.62,6.93.64,13,8.4,13.52,7.95.5,12.45-4.52,16.85-9.47,12.52-14.07,28.13-18.92,46.47-16.5,6.33.83,10.43,3.65,11,10.56.94,11.09-1.23,15.91-8.58,18-17.06,4.72-34.55,7.41-51.87,10.9-24.08,4.84-44.18,15.43-51.32,41.47-2.56,3.45,1.37,7.73-1.44,11.15,1.73,13.53,13.12,23.14,28.84,23.71,16.24.59,31.36-3.79,45.62-11.35,4.93-2.61,9.18-6.6,15.28-7.53,1,5.44,3.79,9.95,6.95,14.23,2.16,2.91,5,5.24,8.84,4.53,11.1-2,21.35-11.34,20.82-22.11-.61-12.39,2.5-24.3,7-36,5.62-14.66,11.91-29.27,14.47-44.81C6717.92,7273.39,6718.75,7263.6,6707.06,7256.67Zm-91.57,110c-5.12-.64-9-3.15-10.83-8.36-2.42-6.88-.2-12.84,4.1-17.9,5.76-6.78,13.77-10.45,22.3-11.88,13.23-2.22,26.3-5.09,40.07-8.21C6666.81,7350.58,6641,7369.88,6615.49,7366.71Z" transform="translate(-6351.07 -7063.67)"/><path class="cls-1" d="M7702.56,7238.71c-27.63-7-52.49,1.87-74.11,19.68-21,17.29-32.09,40.41-37.92,66.34-4.25,18.9,6.46,39.27,24.53,46.42,23.08,9.13,45.37,4.92,67.09-4.93,11.94-5.41,22.59-12.58,29.13-24.39,3.8-6.87.45-12-7.32-12.24-5.51-.2-8.75,3.59-12.68,6.14-10.79,7-21.08,14.83-34.1,17.6-21.85,4.65-37.66-10.42-32.81-31.31,1.19-5.1,3.4-7.75,9.29-7.48,10.21.48,20.47.13,32.56.13,11.33-.33,24.54.74,37.7-.86,7.29-.89,14.55-2.58,19.15-8.73C7742.87,7278.67,7733.08,7246.43,7702.56,7238.71Zm-21,57.25h-15.35v0c-8.89,0-17.78,0-26.66,0-2.93,0-5.27-.05-3.72-4.47,5.95-16.92,24.17-33.38,44.8-31.49,10.71,1,17.57,7.07,18.2,17.62C7699.88,7296,7699.88,7296,7681.52,7296Z" transform="translate(-6351.07 -7063.67)"/><path class="cls-2" d="M7032.07,7288.08c-.58-11.74-4.77-21.18-14.14-28.35a45.48,45.48,0,0,0-31.68-9.12c-28.69-.5-49.89,9.27-67.88,26.29-17.58,16.64-27.13,37.71-31.19,61.18-4.1,23.65,9.11,43.18,32.54,48.82,24.82,6,48-.28,67.56-14.64C7015.23,7351.79,7033.9,7325.08,7032.07,7288.08Zm-35.47,23.55c-5.6,21-14.73,39.62-36,49.33-14.05,6.41-30.12,3.14-36.13-7.17-2.87-4.93-2.69-10.25-3-15.7,2.18-21.45,10.11-40.18,26.94-54.44,10.67-9,23.19-10.33,36.44-7.57,6.45,1.35,10.15,5.52,11.91,11.72A44.61,44.61,0,0,1,6996.6,7311.63Z" transform="translate(-6351.07 -7063.67)"/><path class="cls-24" d="M7745.45,7182.55c11.14.18,22.37-.45,33.41.7,21.17,2.2,42.35.72,63.51,1.5-3.13,3.3-8-.38-11.18,2.78-8.34-1.88-13.8,1.88-17.38,9-2.62,5.23-5,10.59-7.75,16.52-1.85-3.53-3.39-6.59-5-9.57-8.27-15-17.23-15.78-28.36-2.47-3.06,3.65-6,7.41-9.58,11.9C7756.8,7202.29,7756.2,7189.35,7745.45,7182.55Z" transform="translate(-6351.07 -7063.67)"/><path class="cls-25" d="M7609.49,7170.14l2.11-.3,67.49,7a1.61,1.61,0,0,1,.06,2.58c-7.18,5-11.16,12.85-17.1,19.81-4.25-3.6-5.8-8.78-8.54-13.08-9-14.14-17.95-14.39-27.62-.58-1.83,2.62-3.52,5.33-5.66,8.58C7614.83,7186.49,7612.2,7178.3,7609.49,7170.14Z" transform="translate(-6351.07 -7063.67)"/><path class="cls-25" d="M7733.78,7180.88l3.5,1.52c-9.3,4.14-14.44,12.6-20.48,20-4.06,5-6.43,5.11-9.45-.83-4.35-8.53-8.48-17.33-16.48-23.35Z" transform="translate(-6351.07 -7063.67)"/><path class="cls-26" d="M7679.15,7179.41c0-.86,0-1.72-.07-2.58,3.24-.17,6.53-.93,9.56.94A21.29,21.29,0,0,0,7679.15,7179.41Z" transform="translate(-6351.07 -7063.67)"/><path class="cls-1" d="M7870.3,7237.21c-3.18-2.29-6.69-1.63-10.18-1.11a30,30,0,0,0-4.18,1.78l2.27.05c-11.41,8.54-21.06,19-31.33,28.74-2.92,2.77-5.74,5.64-8.71,8.35-7.58,7-8.65,6.64-12.18-2.77-3-8-6.24-15.89-9.4-23.82a34.77,34.77,0,0,0-6-10.29l1.95-.07a12.35,12.35,0,0,0-3-1.81c-4.76-.66-9.58-1.88-13.93,1.46-12.57,9.12-14.46,15-9.07,29.35,2.53,6.75,5.49,13.34,8.16,20,7.33,18.45,8.11,14.08-5.64,27.72-14.31,14.19-28.71,28.27-42.85,42.62-3.79,3.85-7.46,8.66-2.61,14.07,4.41,4.92,9.47,5.47,15.88,2.26a66,66,0,0,0,16.64-12.21c10.76-10.52,21.43-21.11,32.33-31.48,5.74-5.47,6.89-4.94,9.62,2.39,4,10.75,6.63,22,11.77,32.35s10.46,13.64,18.55,9.63c14-7,15.58-11.13,12.75-21.73-3.74-14-9.26-27.3-14.27-40.81-2.34-6.31-2.33-10.62,3.44-15.23,7.92-6.33,14.94-13.76,22.39-20.67,7.62-7.09,15.81-13.66,22.08-22C7880.74,7246,7879.38,7241.8,7870.3,7237.21Z" transform="translate(-6351.07 -7063.67)"/></svg>